<svg width="20" height="20" viewBox="0 0 20 20" fill="none" xmlns="http://www.w3.org/2000/svg">
<g id="GlTelephoneSolid">
<path id="Vector" d="M16.875 13.3814L14.375 11.9251C14.1074 11.7656 13.7898 11.7118 13.4846 11.7743C13.1794 11.8367 12.9085 12.0109 12.725 12.2626L11.3625 14.0751C10.1117 13.6292 8.96229 12.9387 7.98124 12.0439C7.08567 11.061 6.39512 9.90935 5.94999 8.65637L7.76249 7.30011C8.01425 7.1166 8.1884 6.84571 8.25083 6.54049C8.31326 6.23527 8.25947 5.91774 8.09999 5.65012L6.61874 3.12511C6.5337 2.96829 6.41607 2.83149 6.27377 2.7239C6.13147 2.61632 5.96778 2.54043 5.79372 2.50135C5.61965 2.46228 5.43924 2.46093 5.26461 2.49737C5.08997 2.53381 4.92516 2.60719 4.78125 2.71261L3.92499 3.33761C3.49707 3.63708 3.14795 4.03564 2.90743 4.49926C2.66691 4.96289 2.54213 5.47782 2.54374 6.00012C2.48212 7.51889 2.75276 9.0328 3.33677 10.4362C3.92078 11.8395 4.80408 13.0985 5.925 14.1251C6.95165 15.246 8.2106 16.1293 9.61395 16.7133C11.0173 17.2973 12.5312 17.568 14.05 17.5064C14.5723 17.508 15.0872 17.3832 15.5509 17.1427C16.0145 16.9022 16.413 16.553 16.7125 16.1251L17.3375 15.2689C17.4502 15.1206 17.5284 14.949 17.5663 14.7666C17.6042 14.5842 17.6009 14.3957 17.5566 14.2148C17.5122 14.0338 17.428 13.8651 17.3101 13.7209C17.1922 13.5767 17.0435 13.4607 16.875 13.3814Z" fill="#03050F"/>
</g>
</svg>
